ply
format ascii 1.0
comment Created by Blender 2.91.0 - www.blender.org
element vertex 482
property float x
property float y
property float z
element face 960
property list uchar uint vertex_indices
end_header
-0.000000 0.461940 0.191342
-0.054193 0.415735 0.272447
-0.000000 0.415735 0.277785
-0.000000 -0.191342 0.461939
-0.081106 -0.277785 0.407746
-0.000000 -0.277785 0.415734
-0.068975 0.353553 0.346760
-0.000000 0.353553 0.353553
-0.068975 -0.353553 0.346760
-0.000000 -0.353553 0.353553
-0.081106 0.277785 0.407746
-0.000000 0.277785 0.415735
-0.054193 -0.415735 0.272447
-0.000000 -0.415735 0.277785
-0.000000 0.191342 0.461940
-0.090120 0.191342 0.453064
-0.037329 -0.461940 0.187665
-0.000000 -0.461940 0.191341
-0.000000 0.097545 0.490393
-0.095671 0.097545 0.480970
-0.019030 -0.490393 0.095671
-0.000000 -0.490393 0.097545
-0.097545 0.000000 0.490393
-0.000000 0.000000 0.500000
-0.000000 0.490393 0.097545
0.000000 0.500000 -0.000000
-0.019030 0.490393 0.095671
-0.000000 -0.500000 -0.000000
-0.095671 -0.097545 0.480970
-0.000000 -0.097545 0.490393
-0.037329 0.461940 0.187665
-0.090120 -0.191342 0.453064
-0.191342 0.000000 0.461940
-0.187665 -0.097545 0.453064
-0.073223 0.461940 0.176777
-0.176777 -0.191342 0.426777
-0.106304 0.415735 0.256640
-0.159095 -0.277785 0.384089
-0.135299 0.353553 0.326641
-0.135299 -0.353553 0.326641
-0.159095 0.277785 0.384089
-0.106304 -0.415735 0.256640
-0.176777 0.191342 0.426777
-0.073223 -0.461940 0.176777
-0.187665 0.097545 0.453064
-0.037329 -0.490393 0.090120
-0.037329 0.490393 0.090120
-0.154329 -0.415735 0.230970
-0.256640 0.191342 0.384089
-0.106304 -0.461940 0.159095
-0.272448 0.097545 0.407746
-0.054193 -0.490393 0.081106
-0.277785 0.000000 0.415735
-0.054193 0.490393 0.081106
-0.272448 -0.097545 0.407746
-0.106304 0.461940 0.159095
-0.256640 -0.191342 0.384089
-0.154329 0.415735 0.230970
-0.230970 -0.277785 0.345671
-0.196424 0.353553 0.293969
-0.196424 -0.353553 0.293969
-0.230970 0.277785 0.345671
-0.326641 -0.191342 0.326641
-0.196424 0.415735 0.196424
-0.293969 -0.277785 0.293969
-0.250000 0.353553 0.250000
-0.250000 -0.353553 0.250000
-0.293969 0.277785 0.293969
-0.196424 -0.415735 0.196424
-0.326641 0.191342 0.326641
-0.135299 -0.461940 0.135299
-0.346760 0.097545 0.346760
-0.068975 -0.490393 0.068975
-0.353554 0.000000 0.353553
-0.068975 0.490393 0.068975
-0.346760 -0.097545 0.346760
-0.135299 0.461940 0.135299
-0.159095 -0.461940 0.106304
-0.384089 0.191342 0.256640
-0.407747 0.097545 0.272447
-0.081106 -0.490393 0.054193
-0.415735 0.000000 0.277785
-0.081106 0.490393 0.054193
-0.407747 -0.097545 0.272447
-0.159095 0.461940 0.106304
-0.384089 -0.191342 0.256640
-0.230970 0.415735 0.154329
-0.345671 -0.277785 0.230970
-0.293969 0.353553 0.196424
-0.293969 -0.353553 0.196424
-0.345671 0.277785 0.230970
-0.230970 -0.415735 0.154329
-0.256640 0.415735 0.106304
-0.426777 -0.191342 0.176777
-0.384089 -0.277785 0.159095
-0.326641 0.353553 0.135299
-0.326641 -0.353553 0.135299
-0.384089 0.277785 0.159095
-0.256640 -0.415735 0.106304
-0.426777 0.191342 0.176776
-0.176777 -0.461940 0.073223
-0.453064 0.097545 0.187665
-0.090120 -0.490393 0.037329
-0.461940 0.000000 0.191341
-0.090120 0.490393 0.037329
-0.453064 -0.097545 0.187665
-0.176777 0.461940 0.073223
-0.453064 0.191342 0.090120
-0.480970 0.097545 0.095671
-0.187665 -0.461940 0.037329
-0.095671 -0.490393 0.019030
-0.490393 0.000000 0.097545
-0.095671 0.490393 0.019030
-0.480970 -0.097545 0.095671
-0.187665 0.461940 0.037329
-0.453064 -0.191342 0.090120
-0.272448 0.415735 0.054193
-0.407747 -0.277785 0.081106
-0.346760 0.353553 0.068975
-0.346760 -0.353553 0.068975
-0.407747 0.277785 0.081106
-0.272448 -0.415735 0.054193
-0.461940 -0.191342 -0.000000
-0.415735 -0.277785 -0.000000
-0.353554 0.353553 -0.000000
-0.353554 -0.353553 -0.000000
-0.415735 0.277785 -0.000000
-0.277785 -0.415735 -0.000000
-0.461940 0.191342 -0.000000
-0.191342 -0.461940 -0.000000
-0.490393 0.097545 -0.000000
-0.097545 -0.490393 -0.000000
-0.500000 0.000000 -0.000000
-0.097545 0.490393 -0.000000
-0.490393 -0.097545 -0.000000
-0.191342 0.461940 -0.000000
-0.277785 0.415735 -0.000000
-0.095671 -0.490393 -0.019030
-0.490393 0.000000 -0.097545
-0.095671 0.490393 -0.019030
-0.480970 -0.097545 -0.095671
-0.187665 0.461940 -0.037329
-0.453064 -0.191342 -0.090120
-0.272448 0.415735 -0.054193
-0.407747 -0.277785 -0.081106
-0.346760 0.353553 -0.068975
-0.346760 -0.353553 -0.068975
-0.407747 0.277785 -0.081106
-0.272448 -0.415735 -0.054193
-0.453064 0.191342 -0.090120
-0.187665 -0.461940 -0.037329
-0.480970 0.097545 -0.095671
-0.256640 0.415735 -0.106304
-0.326641 0.353553 -0.135299
-0.326641 -0.353553 -0.135299
-0.384089 0.277785 -0.159095
-0.256640 -0.415735 -0.106304
-0.426777 0.191342 -0.176777
-0.176777 -0.461940 -0.073224
-0.453064 0.097545 -0.187665
-0.090120 -0.490393 -0.037329
-0.461940 0.000000 -0.191342
-0.090120 0.490393 -0.037329
-0.453064 -0.097545 -0.187665
-0.176777 0.461940 -0.073224
-0.426777 -0.191342 -0.176777
-0.384089 -0.277785 -0.159095
-0.407747 0.097545 -0.272448
-0.415735 0.000000 -0.277785
-0.081106 0.490393 -0.054194
-0.081106 -0.490393 -0.054193
-0.407747 -0.097545 -0.272448
-0.159095 0.461940 -0.106304
-0.384089 -0.191342 -0.256640
-0.230970 0.415735 -0.154329
-0.345671 -0.277785 -0.230970
-0.293969 0.353553 -0.196424
-0.293969 -0.353553 -0.196424
-0.345671 0.277785 -0.230970
-0.230970 -0.415735 -0.154329
-0.384089 0.191342 -0.256640
-0.159095 -0.461940 -0.106304
-0.250000 -0.353553 -0.250000
-0.250000 0.353553 -0.250000
-0.293969 0.277785 -0.293969
-0.196424 -0.415735 -0.196424
-0.326641 0.191342 -0.326641
-0.135299 -0.461940 -0.135299
-0.346760 0.097545 -0.346760
-0.068975 -0.490393 -0.068975
-0.353553 0.000000 -0.353554
-0.068975 0.490393 -0.068975
-0.346760 -0.097545 -0.346760
-0.135299 0.461940 -0.135299
-0.326641 -0.191342 -0.326641
-0.196424 0.415735 -0.196424
-0.293969 -0.277785 -0.293969
-0.054193 -0.490393 -0.081106
-0.272448 -0.097545 -0.407747
-0.106304 0.461940 -0.159095
-0.256640 -0.191342 -0.384089
-0.154329 0.415735 -0.230970
-0.230970 -0.277785 -0.345671
-0.196424 0.353553 -0.293969
-0.196424 -0.353553 -0.293969
-0.230970 0.277785 -0.345671
-0.154329 -0.415735 -0.230970
-0.256640 0.191342 -0.384089
-0.106304 -0.461940 -0.159095
-0.272448 0.097545 -0.407747
-0.277785 0.000000 -0.415735
-0.054193 0.490393 -0.081106
-0.106304 -0.415735 -0.256640
-0.176777 0.191342 -0.426777
-0.073223 -0.461940 -0.176777
-0.187665 0.097545 -0.453064
-0.037329 -0.490393 -0.090120
-0.191342 0.000000 -0.461940
-0.037329 0.490393 -0.090120
-0.187665 -0.097545 -0.453064
-0.073223 0.461940 -0.176777
-0.176777 -0.191342 -0.426777
-0.106304 0.415735 -0.256640
-0.159095 -0.277785 -0.384089
-0.135299 0.353553 -0.326641
-0.135299 -0.353553 -0.326641
-0.159095 0.277785 -0.384089
-0.037329 0.461940 -0.187665
-0.090120 -0.191342 -0.453064
-0.054193 0.415735 -0.272448
-0.081106 -0.277785 -0.407747
-0.068975 0.353553 -0.346760
-0.068975 -0.353553 -0.346760
-0.081106 0.277785 -0.407747
-0.054193 -0.415735 -0.272448
-0.090120 0.191342 -0.453064
-0.037329 -0.461940 -0.187665
-0.095671 0.097545 -0.480970
-0.019030 -0.490393 -0.095671
-0.097545 0.000000 -0.490393
-0.019030 0.490393 -0.095671
-0.095671 -0.097545 -0.480970
-0.000000 0.191342 -0.461940
-0.000000 -0.415735 -0.277785
-0.000000 -0.461940 -0.191342
-0.000000 0.097545 -0.490393
-0.000000 -0.490393 -0.097545
-0.000000 0.000000 -0.500000
-0.000000 0.490393 -0.097546
-0.000000 -0.097545 -0.490393
-0.000000 0.461940 -0.191342
-0.000000 -0.191342 -0.461940
-0.000000 0.415735 -0.277785
-0.000000 -0.277785 -0.415735
-0.000000 0.353553 -0.353554
-0.000000 -0.353553 -0.353554
-0.000000 0.277785 -0.415735
0.090120 -0.191342 -0.453064
0.054193 0.415735 -0.272448
0.081106 -0.277785 -0.407747
0.068975 0.353553 -0.346760
0.068975 -0.353553 -0.346760
0.081106 0.277785 -0.407747
0.054193 -0.415735 -0.272448
0.090120 0.191342 -0.453064
0.037329 -0.461940 -0.187665
0.095671 0.097545 -0.480970
0.019030 -0.490393 -0.095671
0.097545 0.000000 -0.490393
0.019030 0.490393 -0.095671
0.095671 -0.097545 -0.480970
0.037329 0.461940 -0.187665
0.106304 -0.415735 -0.256640
0.073223 -0.461940 -0.176777
0.176777 0.191342 -0.426777
0.187665 0.097545 -0.453064
0.037329 -0.490393 -0.090120
0.191342 0.000000 -0.461940
0.037329 0.490393 -0.090120
0.187665 -0.097545 -0.453064
0.073223 0.461940 -0.176777
0.176777 -0.191342 -0.426777
0.106304 0.415735 -0.256640
0.159095 -0.277785 -0.384089
0.135299 0.353553 -0.326641
0.135299 -0.353553 -0.326641
0.159095 0.277785 -0.384089
0.154329 0.415735 -0.230970
0.256640 -0.191342 -0.384089
0.230970 -0.277785 -0.345671
0.196424 0.353553 -0.293969
0.196424 -0.353553 -0.293969
0.230970 0.277785 -0.345671
0.154329 -0.415735 -0.230970
0.256640 0.191342 -0.384089
0.106304 -0.461940 -0.159095
0.272447 0.097545 -0.407747
0.054193 -0.490393 -0.081106
0.277785 0.000000 -0.415735
0.054193 0.490393 -0.081106
0.272447 -0.097545 -0.407747
0.106304 0.461940 -0.159095
0.326641 0.191342 -0.326641
0.346760 0.097545 -0.346760
0.068975 -0.490393 -0.068975
0.353553 0.000000 -0.353554
0.068975 0.490393 -0.068975
0.346760 -0.097545 -0.346760
0.135299 0.461940 -0.135299
0.326641 -0.191342 -0.326641
0.196424 0.415735 -0.196424
0.293969 -0.277785 -0.293969
0.250000 0.353553 -0.250000
0.250000 -0.353553 -0.250000
0.293969 0.277785 -0.293969
0.196424 -0.415735 -0.196424
0.135299 -0.461940 -0.135299
0.384089 -0.191342 -0.256640
0.345671 -0.277785 -0.230970
0.293969 0.353553 -0.196424
0.293969 -0.353553 -0.196424
0.345671 0.277785 -0.230970
0.230970 -0.415735 -0.154329
0.384089 0.191342 -0.256640
0.159095 -0.461940 -0.106304
0.407746 0.097545 -0.272448
0.081106 -0.490393 -0.054193
0.415735 0.000000 -0.277785
0.081106 0.490393 -0.054193
0.407746 -0.097545 -0.272448
0.159095 0.461940 -0.106304
0.230970 0.415735 -0.154329
0.090120 -0.490393 -0.037329
0.461940 0.000000 -0.191342
0.090120 0.490393 -0.037329
0.453064 -0.097545 -0.187665
0.176777 0.461940 -0.073224
0.426777 -0.191342 -0.176777
0.256640 0.415735 -0.106304
0.384089 -0.277785 -0.159095
0.326641 0.353553 -0.135299
0.326641 -0.353553 -0.135299
0.384089 0.277785 -0.159095
0.256640 -0.415735 -0.106304
0.426777 0.191342 -0.176777
0.176777 -0.461940 -0.073224
0.453064 0.097545 -0.187665
0.346760 -0.353553 -0.068975
0.407746 0.277785 -0.081106
0.272447 -0.415735 -0.054193
0.453064 0.191342 -0.090120
0.187665 -0.461940 -0.037329
0.480970 0.097545 -0.095671
0.095671 -0.490393 -0.019030
0.490393 0.000000 -0.097545
0.095671 0.490393 -0.019030
0.480970 -0.097545 -0.095671
0.187665 0.461940 -0.037329
0.453064 -0.191342 -0.090120
0.272447 0.415735 -0.054193
0.407746 -0.277785 -0.081106
0.346760 0.353553 -0.068975
0.097545 0.490393 -0.000000
0.097545 -0.490393 -0.000000
0.500000 0.000000 -0.000000
0.490392 -0.097545 -0.000000
0.191342 0.461940 -0.000000
0.461940 -0.191342 -0.000000
0.277785 0.415735 -0.000000
0.415735 -0.277785 -0.000000
0.353553 0.353553 -0.000000
0.353553 -0.353553 -0.000000
0.415735 0.277785 -0.000000
0.277785 -0.415735 -0.000000
0.461940 0.191342 -0.000000
0.191342 -0.461940 -0.000000
0.490392 0.097545 -0.000000
0.407746 0.277785 0.081106
0.272447 -0.415735 0.054193
0.453064 0.191342 0.090120
0.187665 -0.461940 0.037329
0.480970 0.097545 0.095671
0.095671 -0.490393 0.019030
0.490392 0.000000 0.097545
0.095671 0.490393 0.019030
0.480970 -0.097545 0.095671
0.187665 0.461940 0.037329
0.453064 -0.191342 0.090120
0.272447 0.415735 0.054193
0.407746 -0.277785 0.081106
0.346760 0.353553 0.068975
0.346760 -0.353553 0.068975
0.453063 -0.097545 0.187665
0.176777 0.461940 0.073223
0.426777 -0.191342 0.176776
0.256640 0.415735 0.106304
0.384089 -0.277785 0.159095
0.326641 0.353553 0.135299
0.326641 -0.353553 0.135299
0.384089 0.277785 0.159095
0.256640 -0.415735 0.106304
0.426777 0.191342 0.176776
0.176777 -0.461940 0.073223
0.453063 0.097545 0.187665
0.090120 -0.490393 0.037329
0.461940 0.000000 0.191342
0.090120 0.490393 0.037329
0.230970 -0.415735 0.154329
0.384089 0.191342 0.256640
0.159095 -0.461940 0.106303
0.407746 0.097545 0.272447
0.081106 -0.490393 0.054193
0.415735 0.000000 0.277785
0.081106 0.490393 0.054193
0.407746 -0.097545 0.272447
0.159095 0.461940 0.106304
0.384089 -0.191342 0.256640
0.230970 0.415735 0.154329
0.345671 -0.277785 0.230970
0.293969 0.353553 0.196424
0.293969 -0.353553 0.196424
0.345671 0.277785 0.230970
0.135299 0.461940 0.135299
0.326641 -0.191342 0.326640
0.196424 0.415735 0.196423
0.293969 -0.277785 0.293969
0.250000 0.353553 0.250000
0.250000 -0.353553 0.250000
0.293969 0.277785 0.293969
0.196424 -0.415735 0.196423
0.326641 0.191342 0.326640
0.135299 -0.461940 0.135299
0.346760 0.097545 0.346760
0.068975 -0.490393 0.068975
0.353553 0.000000 0.353553
0.068975 0.490393 0.068975
0.346760 -0.097545 0.346760
0.256640 0.191342 0.384089
0.106304 -0.461940 0.159094
0.272447 0.097545 0.407746
0.054193 -0.490393 0.081106
0.277785 0.000000 0.415734
0.054193 0.490393 0.081106
0.272447 -0.097545 0.407746
0.106304 0.461940 0.159095
0.256640 -0.191342 0.384089
0.154329 0.415735 0.230970
0.230970 -0.277785 0.345670
0.196424 0.353553 0.293969
0.196424 -0.353553 0.293969
0.230970 0.277785 0.345670
0.154329 -0.415735 0.230970
0.176777 -0.191342 0.426776
0.073223 0.461940 0.176776
0.106304 0.415735 0.256640
0.159095 -0.277785 0.384088
0.135299 0.353553 0.326640
0.135299 -0.353553 0.326640
0.159095 0.277785 0.384088
0.106304 -0.415735 0.256640
0.176777 0.191342 0.426776
0.073223 -0.461940 0.176776
0.187665 0.097545 0.453063
0.037329 -0.490393 0.090120
0.191341 0.000000 0.461939
0.037329 0.490393 0.090120
0.187665 -0.097545 0.453063
0.037329 -0.461940 0.187665
0.090120 0.191342 0.453063
0.095671 0.097545 0.480969
0.019030 -0.490393 0.095671
0.097545 0.000000 0.490392
0.019030 0.490393 0.095671
0.095671 -0.097545 0.480969
0.037329 0.461940 0.187665
0.090120 -0.191342 0.453063
0.054193 0.415735 0.272447
0.081106 -0.277785 0.407746
0.068975 0.353553 0.346760
0.068975 -0.353553 0.346760
0.081106 0.277785 0.407746
0.054193 -0.415735 0.272447
3 0 1 2
3 3 4 5
3 2 6 7
3 5 8 9
3 7 10 11
3 9 12 13
3 14 10 15
3 13 16 17
3 18 15 19
3 17 20 21
3 18 22 23
3 24 25 26
3 27 21 20
3 23 28 29
3 24 30 0
3 29 31 3
3 28 32 33
3 26 34 30
3 31 33 35
3 1 34 36
3 31 37 4
3 1 38 6
3 8 37 39
3 6 40 10
3 12 39 41
3 10 42 15
3 12 43 16
3 19 42 44
3 20 43 45
3 19 32 22
3 26 25 46
3 27 20 45
3 39 47 41
3 40 48 42
3 43 47 49
3 44 48 50
3 43 51 45
3 44 52 32
3 46 25 53
3 27 45 51
3 32 54 33
3 46 55 34
3 33 56 35
3 34 57 36
3 37 56 58
3 38 57 59
3 37 60 39
3 38 61 40
3 54 62 56
3 55 63 57
3 58 62 64
3 59 63 65
3 58 66 60
3 59 67 61
3 60 68 47
3 61 69 48
3 49 68 70
3 48 71 50
3 49 72 51
3 52 71 73
3 53 25 74
3 27 51 72
3 52 75 54
3 53 76 55
3 68 77 70
3 71 78 79
3 70 80 72
3 71 81 73
3 74 25 82
3 27 72 80
3 73 83 75
3 74 84 76
3 75 85 62
3 63 84 86
3 64 85 87
3 63 88 65
3 64 89 66
3 67 88 90
3 66 91 68
3 67 78 69
3 84 92 86
3 87 93 94
3 88 92 95
3 89 94 96
3 88 97 90
3 89 98 91
3 90 99 78
3 91 100 77
3 79 99 101
3 80 100 102
3 79 103 81
3 82 25 104
3 27 80 102
3 81 105 83
3 82 106 84
3 83 93 85
3 101 107 108
3 102 109 110
3 101 111 103
3 104 25 112
3 27 102 110
3 105 111 113
3 104 114 106
3 105 115 93
3 106 116 92
3 94 115 117
3 92 118 95
3 94 119 96
3 95 120 97
3 98 119 121
3 97 107 99
3 98 109 100
3 117 122 123
3 116 124 118
3 117 125 119
3 118 126 120
3 121 125 127
3 120 128 107
3 109 127 129
3 108 128 130
3 110 129 131
3 108 132 111
3 112 25 133
3 27 110 131
3 111 134 113
3 112 135 114
3 113 122 115
3 114 136 116
3 129 137 131
3 130 138 132
3 133 25 139
3 27 131 137
3 132 140 134
3 133 141 135
3 134 142 122
3 135 143 136
3 123 142 144
3 136 145 124
3 125 144 146
3 124 147 126
3 127 146 148
3 126 149 128
3 127 150 129
3 130 149 151
3 145 152 153
3 144 154 146
3 147 153 155
3 148 154 156
3 147 157 149
3 150 156 158
3 151 157 159
3 150 160 137
3 151 161 138
3 139 25 162
3 27 137 160
3 140 161 163
3 139 164 141
3 140 165 142
3 141 152 143
3 144 165 166
3 161 167 168
3 162 25 169
3 27 160 170
3 163 168 171
3 162 172 164
3 163 173 165
3 164 174 152
3 166 173 175
3 152 176 153
3 166 177 154
3 153 178 155
3 156 177 179
3 155 180 157
3 156 181 158
3 159 180 167
3 158 170 160
3 175 182 177
3 178 183 184
3 179 182 185
3 178 186 180
3 179 187 181
3 167 186 188
3 170 187 189
3 167 190 168
3 169 25 191
3 27 170 189
3 168 192 171
3 169 193 172
3 171 194 173
3 172 195 174
3 175 194 196
3 174 183 176
3 27 189 197
3 190 198 192
3 191 199 193
3 192 200 194
3 193 201 195
3 196 200 202
3 195 203 183
3 196 204 182
3 184 203 205
3 182 206 185
3 184 207 186
3 187 206 208
3 188 207 209
3 187 197 189
3 188 210 190
3 191 25 211
3 204 212 206
3 205 213 207
3 206 214 208
3 209 213 215
3 208 216 197
3 209 217 210
3 211 25 218
3 27 197 216
3 210 219 198
3 211 220 199
3 198 221 200
3 199 222 201
3 202 221 223
3 203 222 224
3 204 223 225
3 203 226 205
3 218 227 220
3 219 228 221
3 222 227 229
3 223 228 230
3 224 229 231
3 223 232 225
3 226 231 233
3 225 234 212
3 226 235 213
3 212 236 214
3 215 235 237
3 214 238 216
3 215 239 217
3 218 25 240
3 27 216 238
3 217 241 219
3 233 242 235
3 236 243 244
3 237 242 245
3 236 246 238
3 237 247 239
3 240 25 248
3 27 238 246
3 239 249 241
3 240 250 227
3 241 251 228
3 227 252 229
3 230 251 253
3 229 254 231
3 232 253 255
3 231 256 233
3 232 243 234
3 249 257 251
3 250 258 252
3 253 257 259
3 252 260 254
3 253 261 255
3 254 262 256
3 255 263 243
3 256 264 242
3 243 265 244
3 245 264 266
3 246 265 267
3 247 266 268
3 248 25 269
3 27 246 267
3 247 270 249
3 248 271 250
3 265 272 273
3 266 274 275
3 267 273 276
3 266 277 268
3 269 25 278
3 27 267 276
3 268 279 270
3 269 280 271
3 270 281 257
3 271 282 258
3 259 281 283
3 260 282 284
3 259 285 261
3 262 284 286
3 261 272 263
3 262 274 264
3 280 287 282
3 283 288 289
3 284 287 290
3 283 291 285
3 286 290 292
3 285 293 272
3 286 294 274
3 273 293 295
3 275 294 296
3 276 295 297
3 277 296 298
3 278 25 299
3 27 276 297
3 277 300 279
3 278 301 280
3 279 288 281
3 296 302 303
3 295 304 297
3 298 303 305
3 299 25 306
3 27 297 304
3 298 307 300
3 299 308 301
3 300 309 288
3 301 310 287
3 289 309 311
3 287 312 290
3 289 313 291
3 292 312 314
3 293 313 315
3 292 302 294
3 293 316 295
3 311 317 318
3 310 319 312
3 311 320 313
3 314 319 321
3 315 320 322
3 314 323 302
3 316 322 324
3 303 323 325
3 316 326 304
3 303 327 305
3 306 25 328
3 27 304 326
3 305 329 307
3 306 330 308
3 307 317 309
3 308 331 310
3 324 332 326
3 325 333 327
3 328 25 334
3 27 326 332
3 327 335 329
3 328 336 330
3 329 337 317
3 330 338 331
3 318 337 339
3 331 340 319
3 320 339 341
3 319 342 321
3 320 343 322
3 321 344 323
3 324 343 345
3 325 344 346
3 339 347 341
3 340 348 342
3 341 349 343
3 342 350 344
3 343 351 345
3 346 350 352
3 332 351 353
3 346 354 333
3 334 25 355
3 27 332 353
3 335 354 356
3 334 357 336
3 335 358 337
3 336 359 338
3 339 358 360
3 338 361 340
3 355 25 362
3 27 353 363
3 356 364 365
3 355 366 357
3 356 367 358
3 357 368 359
3 360 367 369
3 361 368 370
3 360 371 347
3 361 372 348
3 347 373 349
3 348 374 350
3 351 373 375
3 352 374 376
3 351 363 353
3 352 364 354
3 370 377 372
3 371 378 373
3 372 379 374
3 373 380 375
3 376 379 381
3 375 382 363
3 376 383 364
3 362 25 384
3 27 363 382
3 365 383 385
3 362 386 366
3 365 387 367
3 366 388 368
3 369 387 389
3 368 390 370
3 369 391 371
3 383 392 385
3 384 393 386
3 385 394 387
3 386 395 388
3 389 394 396
3 390 395 397
3 389 398 391
3 390 399 377
3 391 400 378
3 377 401 379
3 380 400 402
3 381 401 403
3 380 404 382
3 381 405 383
3 384 25 406
3 27 382 404
3 398 407 400
3 399 408 401
3 402 407 409
3 403 408 410
3 402 411 404
3 403 412 405
3 406 25 413
3 27 404 411
3 392 412 414
3 406 415 393
3 392 416 394
3 393 417 395
3 396 416 418
3 397 417 419
3 396 420 398
3 399 419 421
3 413 422 415
3 414 423 416
3 415 424 417
3 418 423 425
3 417 426 419
3 418 427 420
3 421 426 428
3 420 429 407
3 421 430 408
3 407 431 409
3 410 430 432
3 409 433 411
3 410 434 412
3 413 25 435
3 27 411 433
3 412 436 414
3 428 437 430
3 429 438 431
3 432 437 439
3 431 440 433
3 432 441 434
3 435 25 442
3 27 433 440
3 434 443 436
3 435 444 422
3 436 445 423
3 422 446 424
3 425 445 447
3 424 448 426
3 425 449 427
3 428 448 450
3 429 449 451
3 443 452 445
3 446 453 454
3 447 452 455
3 446 456 448
3 447 457 449
3 450 456 458
3 449 459 451
3 450 460 437
3 451 461 438
3 439 460 462
3 438 463 440
3 441 462 464
3 442 25 465
3 27 440 463
3 441 466 443
3 444 465 453
3 459 467 461
3 462 468 469
3 463 467 470
3 462 471 464
3 465 25 472
3 27 463 470
3 466 471 473
3 465 474 453
3 466 475 452
3 453 476 454
3 455 475 477
3 454 478 456
3 455 479 457
3 458 478 480
3 457 481 459
3 458 468 460
3 477 3 5
3 478 2 7
3 477 9 479
3 480 7 11
3 479 13 481
3 468 11 14
3 481 17 467
3 469 14 18
3 467 21 470
3 471 18 23
3 472 25 24
3 27 470 21
3 471 29 473
3 474 24 0
3 473 3 475
3 476 0 2
3 0 30 1
3 3 31 4
3 2 1 6
3 5 4 8
3 7 6 10
3 9 8 12
3 14 11 10
3 13 12 16
3 18 14 15
3 17 16 20
3 18 19 22
3 23 22 28
3 24 26 30
3 29 28 31
3 28 22 32
3 26 46 34
3 31 28 33
3 1 30 34
3 31 35 37
3 1 36 38
3 8 4 37
3 6 38 40
3 12 8 39
3 10 40 42
3 12 41 43
3 19 15 42
3 20 16 43
3 19 44 32
3 39 60 47
3 40 61 48
3 43 41 47
3 44 42 48
3 43 49 51
3 44 50 52
3 32 52 54
3 46 53 55
3 33 54 56
3 34 55 57
3 37 35 56
3 38 36 57
3 37 58 60
3 38 59 61
3 54 75 62
3 55 76 63
3 58 56 62
3 59 57 63
3 58 64 66
3 59 65 67
3 60 66 68
3 61 67 69
3 49 47 68
3 48 69 71
3 49 70 72
3 52 50 71
3 52 73 75
3 53 74 76
3 68 91 77
3 71 69 78
3 70 77 80
3 71 79 81
3 73 81 83
3 74 82 84
3 75 83 85
3 63 76 84
3 64 62 85
3 63 86 88
3 64 87 89
3 67 65 88
3 66 89 91
3 67 90 78
3 84 106 92
3 87 85 93
3 88 86 92
3 89 87 94
3 88 95 97
3 89 96 98
3 90 97 99
3 91 98 100
3 79 78 99
3 80 77 100
3 79 101 103
3 81 103 105
3 82 104 106
3 83 105 93
3 101 99 107
3 102 100 109
3 101 108 111
3 105 103 111
3 104 112 114
3 105 113 115
3 106 114 116
3 94 93 115
3 92 116 118
3 94 117 119
3 95 118 120
3 98 96 119
3 97 120 107
3 98 121 109
3 117 115 122
3 116 136 124
3 117 123 125
3 118 124 126
3 121 119 125
3 120 126 128
3 109 121 127
3 108 107 128
3 110 109 129
3 108 130 132
3 111 132 134
3 112 133 135
3 113 134 122
3 114 135 136
3 129 150 137
3 130 151 138
3 132 138 140
3 133 139 141
3 134 140 142
3 135 141 143
3 123 122 142
3 136 143 145
3 125 123 144
3 124 145 147
3 127 125 146
3 126 147 149
3 127 148 150
3 130 128 149
3 145 143 152
3 144 166 154
3 147 145 153
3 148 146 154
3 147 155 157
3 150 148 156
3 151 149 157
3 150 158 160
3 151 159 161
3 140 138 161
3 139 162 164
3 140 163 165
3 141 164 152
3 144 142 165
3 161 159 167
3 163 161 168
3 162 169 172
3 163 171 173
3 164 172 174
3 166 165 173
3 152 174 176
3 166 175 177
3 153 176 178
3 156 154 177
3 155 178 180
3 156 179 181
3 159 157 180
3 158 181 170
3 175 196 182
3 178 176 183
3 179 177 182
3 178 184 186
3 179 185 187
3 167 180 186
3 170 181 187
3 167 188 190
3 168 190 192
3 169 191 193
3 171 192 194
3 172 193 195
3 175 173 194
3 174 195 183
3 190 210 198
3 191 211 199
3 192 198 200
3 193 199 201
3 196 194 200
3 195 201 203
3 196 202 204
3 184 183 203
3 182 204 206
3 184 205 207
3 187 185 206
3 188 186 207
3 187 208 197
3 188 209 210
3 204 225 212
3 205 226 213
3 206 212 214
3 209 207 213
3 208 214 216
3 209 215 217
3 210 217 219
3 211 218 220
3 198 219 221
3 199 220 222
3 202 200 221
3 203 201 222
3 204 202 223
3 203 224 226
3 218 240 227
3 219 241 228
3 222 220 227
3 223 221 228
3 224 222 229
3 223 230 232
3 226 224 231
3 225 232 234
3 226 233 235
3 212 234 236
3 215 213 235
3 214 236 238
3 215 237 239
3 217 239 241
3 233 256 242
3 236 234 243
3 237 235 242
3 236 244 246
3 237 245 247
3 239 247 249
3 240 248 250
3 241 249 251
3 227 250 252
3 230 228 251
3 229 252 254
3 232 230 253
3 231 254 256
3 232 255 243
3 249 270 257
3 250 271 258
3 253 251 257
3 252 258 260
3 253 259 261
3 254 260 262
3 255 261 263
3 256 262 264
3 243 263 265
3 245 242 264
3 246 244 265
3 247 245 266
3 247 268 270
3 248 269 271
3 265 263 272
3 266 264 274
3 267 265 273
3 266 275 277
3 268 277 279
3 269 278 280
3 270 279 281
3 271 280 282
3 259 257 281
3 260 258 282
3 259 283 285
3 262 260 284
3 261 285 272
3 262 286 274
3 280 301 287
3 283 281 288
3 284 282 287
3 283 289 291
3 286 284 290
3 285 291 293
3 286 292 294
3 273 272 293
3 275 274 294
3 276 273 295
3 277 275 296
3 277 298 300
3 278 299 301
3 279 300 288
3 296 294 302
3 295 316 304
3 298 296 303
3 298 305 307
3 299 306 308
3 300 307 309
3 301 308 310
3 289 288 309
3 287 310 312
3 289 311 313
3 292 290 312
3 293 291 313
3 292 314 302
3 293 315 316
3 311 309 317
3 310 331 319
3 311 318 320
3 314 312 319
3 315 313 320
3 314 321 323
3 316 315 322
3 303 302 323
3 316 324 326
3 303 325 327
3 305 327 329
3 306 328 330
3 307 329 317
3 308 330 331
3 324 345 332
3 325 346 333
3 327 333 335
3 328 334 336
3 329 335 337
3 330 336 338
3 318 317 337
3 331 338 340
3 320 318 339
3 319 340 342
3 320 341 343
3 321 342 344
3 324 322 343
3 325 323 344
3 339 360 347
3 340 361 348
3 341 347 349
3 342 348 350
3 343 349 351
3 346 344 350
3 332 345 351
3 346 352 354
3 335 333 354
3 334 355 357
3 335 356 358
3 336 357 359
3 339 337 358
3 338 359 361
3 356 354 364
3 355 362 366
3 356 365 367
3 357 366 368
3 360 358 367
3 361 359 368
3 360 369 371
3 361 370 372
3 347 371 373
3 348 372 374
3 351 349 373
3 352 350 374
3 351 375 363
3 352 376 364
3 370 390 377
3 371 391 378
3 372 377 379
3 373 378 380
3 376 374 379
3 375 380 382
3 376 381 383
3 365 364 383
3 362 384 386
3 365 385 387
3 366 386 388
3 369 367 387
3 368 388 390
3 369 389 391
3 383 405 392
3 384 406 393
3 385 392 394
3 386 393 395
3 389 387 394
3 390 388 395
3 389 396 398
3 390 397 399
3 391 398 400
3 377 399 401
3 380 378 400
3 381 379 401
3 380 402 404
3 381 403 405
3 398 420 407
3 399 421 408
3 402 400 407
3 403 401 408
3 402 409 411
3 403 410 412
3 392 405 412
3 406 413 415
3 392 414 416
3 393 415 417
3 396 394 416
3 397 395 417
3 396 418 420
3 399 397 419
3 413 435 422
3 414 436 423
3 415 422 424
3 418 416 423
3 417 424 426
3 418 425 427
3 421 419 426
3 420 427 429
3 421 428 430
3 407 429 431
3 410 408 430
3 409 431 433
3 410 432 434
3 412 434 436
3 428 450 437
3 429 451 438
3 432 430 437
3 431 438 440
3 432 439 441
3 434 441 443
3 435 442 444
3 436 443 445
3 422 444 446
3 425 423 445
3 424 446 448
3 425 447 449
3 428 426 448
3 429 427 449
3 443 466 452
3 446 444 453
3 447 445 452
3 446 454 456
3 447 455 457
3 450 448 456
3 449 457 459
3 450 458 460
3 451 459 461
3 439 437 460
3 438 461 463
3 441 439 462
3 441 464 466
3 444 442 465
3 459 481 467
3 462 460 468
3 463 461 467
3 462 469 471
3 466 464 471
3 465 472 474
3 466 473 475
3 453 474 476
3 455 452 475
3 454 476 478
3 455 477 479
3 458 456 478
3 457 479 481
3 458 480 468
3 477 475 3
3 478 476 2
3 477 5 9
3 480 478 7
3 479 9 13
3 468 480 11
3 481 13 17
3 469 468 14
3 467 17 21
3 471 469 18
3 471 23 29
3 474 472 24
3 473 29 3
3 476 474 0
